# xmcd
#
# Track frame offsets:
# 182
# 12670
# 24467
# 34360
# 47507
# 59805
# 72570
# 83280
# 95445
# 106865
# 116480
#
# Disc length: 1722 seconds
#
#
# Revision: 1
# Processed by: cddbd v1.5.1PL2 Copyright (c) Steve Scherf et al.
# Submitted via: FreeRIP 2.945 
#
DISCID=8e06b80b
DTITLE=Mel Tillis - All His Great Hits
DYEAR=1995
DGENRE=Country
TTITLE0=Commercial Affection
TTITLE1=Heaven Everyday
TTITLE2=I Ain't Never
TTITLE3=Memory Maker
TTITLE4=Mental Revenge
TTITLE5=Midnight, Me And The Blues
TTITLE6=Neon Rose
TTITLE7=Sawmill
TTITLE8=Stomp Them Grapes
TTITLE9=Take My Hand
TTITLE10=Woman In The Back Of My Mind
EXTD=Polygram Records
EXTT0=
EXTT1=
EXTT2=
EXTT3=
EXTT4=
EXTT5=
EXTT6=
EXTT7=
EXTT8=
EXTT9=
EXTT10=
PLAYORDER=
